<svg width="105" height="105" viewBox="0 0 105 105" fill="none" xmlns="http://www.w3.org/2000/svg">
<g clip-path="url(#clip0)">
<path d="M83.2673 58.6523C83.2673 60.3514 81.8903 61.7285 80.1912 61.7285C78.4929 61.7285 77.115 60.3514 77.115 58.6523C77.115 56.9532 78.4929 55.5762 80.1912 55.5762C81.8903 55.5762 83.2673 56.9532 83.2673 58.6523Z" fill="#663265"/>
<path d="M34.043 3.07617V37.1191H6.35742C4.65832 37.1191 3.28125 38.4962 3.28125 40.1953V52.5C3.28125 54.1991 4.65832 55.5762 6.35742 55.5762H34.043V83.4668C34.043 85.1659 35.42 86.543 37.1191 86.543H64.8047V101.924C64.8047 103.032 65.4007 104.055 66.3652 104.601C67.3337 105.149 68.5169 105.13 69.4638 104.562L100.226 86.1048C101.152 85.5488 101.719 84.5475 101.719 83.4668V3.07617C101.719 1.41071 100.377 0.0208281 98.677 0.00160217C98.665 0.00160217 98.6538 0 98.6426 0H37.1191C35.42 0 34.043 1.37707 34.043 3.07617ZM9.43359 49.4238V43.2715H37.1191C38.8182 43.2715 40.1953 41.8944 40.1953 40.1953V39.7908L50.0303 46.3477L40.1953 52.9045V52.5C40.1953 50.8009 38.8182 49.4238 37.1191 49.4238H9.43359ZM95.5664 81.7252L70.957 96.4909V23.2748L95.5664 8.50914V81.7252ZM87.5363 6.15234L66.2979 18.8952C65.3719 19.4512 64.8047 20.4525 64.8047 21.5332V80.3906H40.1953V60.2986L57.2825 48.9071C58.138 48.3368 58.6523 47.3763 58.6523 46.3477C58.6523 45.3191 58.138 44.3586 57.2825 43.7882L40.1953 32.3967V6.15234H87.5363Z" fill="#663265"/>
</g>
<defs>
<clipPath id="clip0">
<rect width="105" height="105" fill="white"/>
</clipPath>
</defs>
</svg>
