<svg width="104" height="104" viewBox="0 0 104 104" fill="none" xmlns="http://www.w3.org/2000/svg">
<g clip-path="url(#clip0)">
<path d="M87.7772 24.2428V22.2511C87.7772 16.5939 83.187 11.9915 77.545 11.9915H66.2401C65.0283 9.13819 62.2225 7.12278 58.9497 7.07545C57.6575 2.97842 53.83 0 49.322 0C44.8143 0 40.9868 2.97842 39.6945 7.07545C36.4218 7.12278 33.616 9.13839 32.4041 11.9915H21.099C15.457 11.9915 10.867 16.5939 10.867 22.2511V93.7404C10.8672 99.3976 15.4572 104 21.0992 104H77.545C83.187 104 87.7772 99.3976 87.7772 93.7404V90.1117L91.5034 83.8419L91.5036 83.8417C92.5696 82.0477 93.1328 79.9957 93.1328 77.908V32.0915C93.1328 28.5244 90.9086 25.4682 87.7772 24.2428ZM86.2648 80.7288L84.7302 83.3109L83.1956 80.729C82.7318 79.9486 82.4684 79.0654 82.4271 78.1601H87.033C86.9918 79.0652 86.7283 79.9486 86.2648 80.7288ZM82.4214 72.0661V40.2884H87.0391V72.0661H82.4214ZM82.4214 34.1947V32.0915C82.4214 30.8078 83.4574 29.7633 84.7304 29.7633C86.0033 29.7633 87.0391 30.8078 87.0391 32.0915V34.1947H82.4214ZM39.8125 13.1684H42.2746C43.9573 13.1684 45.3215 11.8042 45.3215 10.1215C45.3215 7.90055 47.1161 6.09375 49.3222 6.09375C51.5284 6.09375 53.323 7.90075 53.323 10.1215C53.323 11.8042 54.6872 13.1684 56.3699 13.1684H58.8319C59.9091 13.1684 60.7854 14.0532 60.7854 15.1411C60.7854 16.2287 59.9091 17.1137 58.8319 17.1137H39.8125C38.7353 17.1137 37.8591 16.2289 37.8591 15.1411C37.8591 14.0534 38.7353 13.1684 39.8125 13.1684ZM77.545 97.9062H21.0992C18.8173 97.9062 16.961 96.0375 16.961 93.7404V22.2511C16.961 19.954 18.8173 18.0852 21.0992 18.0852H32.3203C33.4961 21.0813 36.4112 23.2074 39.8125 23.2074H58.8317C62.2331 23.2074 65.1481 21.0813 66.324 18.0852H77.545C79.8269 18.0852 81.6835 19.954 81.6835 22.2511V24.2426C78.5519 25.4678 76.3277 28.5242 76.3277 32.0915V77.908C76.3277 79.9957 76.891 82.0477 77.9572 83.8419L81.6835 90.1117V93.7404C81.6835 96.0375 79.8269 97.9062 77.545 97.9062Z" fill="#663265"/>
<path d="M67.8559 31.6351H29.6826C28 31.6351 26.6358 32.9993 26.6358 34.682C26.6358 36.3647 28 37.7289 29.6826 37.7289H67.8559C69.5386 37.7289 70.9028 36.3647 70.9028 34.682C70.9028 32.9993 69.5386 31.6351 67.8559 31.6351Z" fill="#663265"/>
<path d="M29.6826 47.8843H59.7626C61.4453 47.8843 62.8095 46.5201 62.8095 44.8374C62.8095 43.1547 61.4453 41.7905 59.7626 41.7905H29.6826C28 41.7905 26.6358 43.1547 26.6358 44.8374C26.6358 46.5201 28 47.8843 29.6826 47.8843Z" fill="#663265"/>
<path d="M29.6826 58.0397H63.274C64.9567 58.0397 66.3209 56.6755 66.3209 54.9928C66.3209 53.3101 64.9567 51.9459 63.274 51.9459H29.6826C28 51.9459 26.6358 53.3101 26.6358 54.9928C26.6358 56.6755 28 58.0397 29.6826 58.0397Z" fill="#663265"/>
<path d="M29.6826 68.1952H40.7302C42.4129 68.1952 43.7771 66.831 43.7771 65.1483C43.7771 63.4656 42.4129 62.1014 40.7302 62.1014H29.6826C28 62.1014 26.6358 63.4656 26.6358 65.1483C26.6358 66.831 28 68.1952 29.6826 68.1952Z" fill="#663265"/>
<path d="M67.8559 72.2568H29.6826C28 72.2568 26.6358 73.621 26.6358 75.3037C26.6358 76.9864 28 78.3506 29.6826 78.3506H67.8559C69.5386 78.3506 70.9028 76.9864 70.9028 75.3037C70.9028 73.621 69.5386 72.2568 67.8559 72.2568Z" fill="#663265"/>
<path d="M59.7626 82.4124H29.6826C28 82.4124 26.6358 83.7765 26.6358 85.4592C26.6358 87.1419 28 88.5061 29.6826 88.5061H59.7626C61.4453 88.5061 62.8095 87.1419 62.8095 85.4592C62.8095 83.7765 61.4453 82.4124 59.7626 82.4124Z" fill="#663265"/>
</g>
<defs>
<clipPath id="clip0">
<rect width="104" height="104" fill="white"/>
</clipPath>
</defs>
</svg>
