<svg width="20" height="20" viewBox="0 0 20 20" fill="none" xmlns="http://www.w3.org/2000/svg">
    <path d="M4.7423 1.81818C4.7423 1.22197 5.20759 0.78624 5.8038 0.78624H10.1675C10.7635 0.78624 11.2288 1.22197 11.2288 1.81818V2.9484H12.015V1.81818C12.015 0.788544 11.1971 0 10.1675 0H5.8038C4.77416 0 3.95605 0.788544 3.95605 1.81818V2.9484H4.7423V1.81818Z" fill="black"/>
    <path d="M3.33639 20H12.6336C13.5301 20 14.2257 19.2115 14.2257 18.231V6.09338H1.74414V18.231C1.74414 19.2115 2.43978 20 3.33639 20ZM10.4911 7.9705C10.4911 7.7534 10.6671 7.57737 10.8842 7.57737C11.1013 7.57737 11.2773 7.7534 11.2773 7.9705V17.258C11.2773 17.4751 11.1013 17.6511 10.8842 17.6511C10.6671 17.6511 10.4911 17.4751 10.4911 17.258V7.9705ZM7.5918 7.9705C7.5918 7.7534 7.76783 7.57737 7.98492 7.57737C8.20202 7.57737 8.37805 7.7534 8.37805 7.9705V17.258C8.37805 17.4751 8.20202 17.6511 7.98492 17.6511C7.76783 17.6511 7.5918 17.4751 7.5918 17.258V7.9705ZM4.69254 7.9705C4.69254 7.7534 4.86856 7.57737 5.08566 7.57737C5.30276 7.57737 5.47878 7.7534 5.47878 7.9705V17.258C5.47878 17.4751 5.30276 17.6511 5.08566 17.6511C4.86856 17.6511 4.69254 17.4751 4.69254 17.258V7.9705Z" fill="black"/>
    <path d="M1.3412 5.30715H14.6286C15.1714 5.30715 15.6114 4.8672 15.6114 4.32435C15.6114 3.78151 15.1714 3.34155 14.6286 3.34155H1.3412C0.798355 3.34155 0.358398 3.78151 0.358398 4.32435C0.358398 4.8672 0.798355 5.30715 1.3412 5.30715Z" fill="black"/>
</svg>
